# xmcd
#
# Track frame offsets: 
#        150
#        21130
#        37629
#        54387
#        69181
#        82801
#        97112
#        112258
#        130263
#        147087
#        163357
#        180590
#        196326
#        213065
#        229706
#        246036
#        262914
#        279371
#        295642
#        313621
#        330858
#
# Disc length: 4621 seconds
#
# Revision: 0
# Processed by: cddbd v1.5.1PL0 Copyright (c) Steve Scherf et al.
# Submitted via: ExactAudioCopy v0.95a5
#
DISCID=16120b15
DTITLE=Света - Весна моя
DYEAR=2004
DGENRE=Pop
TTITLE0=Весна моя
TTITLE1=Где найти любовь
TTITLE2=Ты не мой
TTITLE3=Не обижай меня
TTITLE4=Одуванчик
TTITLE5=Не просто так
TTITLE6=А может да...
TTITLE7=Обрати внимание
TTITLE8=По шоссе
TTITLE9=Я люблю
TTITLE10=Не обижай меня (Neomaster Mega Dance Mix)
TTITLE11=В машине
TTITLE12=Вернись, моя любовь
TTITLE13=Лети за облака
TTITLE14=Хватит, довольно
TTITLE15=Синеглазые дельфины
TTITLE16=Изумруд
TTITLE17=Жизнь моя
TTITLE18=Я всё пойму сама
TTITLE19=Как чужие
TTITLE20=Мои слезы
EXTD=
EXTT0=
EXTT1=
EXTT2=
EXTT3=
EXTT4=
EXTT5=
EXTT6=
EXTT7=
EXTT8=
EXTT9=
EXTT10=
EXTT11=
EXTT12=
EXTT13=
EXTT14=
EXTT15=
EXTT16=
EXTT17=
EXTT18=
EXTT19=
EXTT20=
PLAYORDER=
